<?xml version="1.0" encoding="utf-8"?>
<!-- Generator: Adobe Illustrator 19.1.0, SVG Export Plug-In . SVG Version: 6.00 Build 0)  -->
<svg version="1.1" id="Layer_1" xmlns="http://www.w3.org/2000/svg" xmlns:xlink="http://www.w3.org/1999/xlink" x="0px" y="0px"
	 viewBox="-191 321 228 152" style="enable-background:new -191 321 228 152;" xml:space="preserve">
<style type="text/css">
	.st0{fill:#EBEDEE;}
	.st1{fill:#0054A4;}
	.st2{fill:#F39C12;}
	.st3{fill:#1B53AF;}
</style>
<g>
	<path class="st0" d="M37,457.8c0,8.4-6.8,15.2-15.2,15.2h-197.6c-8.4,0-15.2-6.8-15.2-15.2V336.2c0-8.4,6.8-15.2,15.2-15.2H21.8
		c8.4,0,15.2,6.8,15.2,15.2V457.8z"/>
	<path class="st1" d="M21.7,321h-197.6c-8.4,0-15.1,6.8-15.1,15.2V347H37v-10.8C37,327.8,30.1,321,21.7,321z"/>
	<path class="st2" d="M21.7,473h-197.6c-8.4,0-15.1-6.8-15.1-15.2V447H37v10.8C37,466.2,30.1,473,21.7,473z"/>
	<g>
		<polyline class="st3" points="-100.2,421.1 -92.3,372 -79.6,372 -87.5,421.1 -100.2,421.1 		"/>
		<path class="st3" d="M-41.5,373.2c-2.5-1-6.5-2.1-11.4-2.1c-12.5,0-21.4,6.7-21.4,16.2c-0.1,7.1,6.3,11,11.1,13.3
			c4.9,2.4,6.6,3.9,6.6,6.1c0,3.3-3.9,4.8-7.6,4.8c-5.1,0-7.8-0.7-11.9-2.6l-1.6-0.8l-1.8,11c3,1.4,8.4,2.6,14.1,2.6
			c13.3,0,22-6.6,22.1-16.8c0-5.6-3.3-9.8-10.7-13.3c-4.4-2.3-7.2-3.8-7.1-6.1c0-2,2.3-4.2,7.3-4.2c4.1-0.1,7.2,0.9,9.5,1.9l1.1,0.6
			L-41.5,373.2"/>
		<path class="st3" d="M-9,372h-9.8c-3,0-5.3,0.9-6.6,4.1l-18.8,45h13.3c0,0,2.2-6.1,2.7-7.4c1.5,0,14.4,0,16.2,0
			c0.4,1.7,1.5,7.4,1.5,7.4H1.3L-9,372 M-24.6,403.7c1.1-2.8,5.1-13.7,5.1-13.7c-0.1,0.1,1-2.8,1.7-4.7l0.9,4.2
			c0,0,2.4,11.7,2.9,14.2C-16.1,403.7-22.1,403.7-24.6,403.7z"/>
		<path class="st3" d="M-110.8,372l-12.4,33.5l-1.3-6.8c-2.3-7.8-9.5-16.3-17.6-20.6l11.4,43l13.4,0l20-49H-110.8"/>
		<path class="st2" d="M-134.8,372h-20.5l-0.2,1c15.9,4.1,26.4,13.9,30.8,25.7l-4.4-22.6C-129.8,373-132,372.1-134.8,372"/>
	</g>
</g>
</svg>
